# xmcd
#
# Track frame offsets:
#	150
#	19270
#	33220
#	46208
#	62790
#	75368
#	87520
#	104258
#	117908
#	135073
#	153668
#	172060
#	193258
#	215788
#	229875
#	246750
#	264530
#	286630
#	301893
#
# Disc length: 4178 seconds
# Revision: 0
# Processed by: cddbd v1.5.2PL0 Copyright (c) Steve Scherf et al.
# Submitted via: dBpowerAMP V12.0
#
DISCID=02105013
DTITLE=Various Artist - Music from the collection of Kenny Gamble and Leon Huff, Disc 3
DYEAR=1900
DGENRE=Soul
TTITLE0=Philadelphia Int'l Allstars - Let's Clean Up the Ghetto
TTITLE1=Archie Bell and the Drells - Let's Groove
TTITLE2=O'Jays, The - Livin' For the Weekend
TTITLE3=Harold Melvin and the Bluenotes - The Love I Lost
TTITLE4=Intruders, The - (Love is Like a) Baseball Game
TTITLE5=MFSB Featuring the Three Degrees - Love is the Message
TTITLE6=Teddy Pendergrass - Love T.K.O.
TTITLE7=O'Jays, The - Love Train
TTITLE8=Major Harris - Love Won't Let Me Wait
TTITLE9=O'Jays, The - Lovin' You
TTITLE10=Elton John - Mama Can't Buy You Love
TTITLE11=Billy Paul - Me and Mrs. Jones
TTITLE12=Spinners, The - Mighty Love
TTITLE13=Jerry Butler - Never Gonna Give You Up
TTITLE14=Jones Girls, The - Nights Over Egypt
TTITLE15=Third World - Now That We Found Love
TTITLE16=Phyllis Hyman - Old Friend
TTITLE17=Spinners, The - One Of a Kind (Love Affair)
TTITLE18=Jerry Butler - Only The Strong Survive
EXTD=
EXTT0=
EXTT1=
EXTT2=
EXTT3=
EXTT4=
EXTT5=
EXTT6=
EXTT7=
EXTT8=
EXTT9=
EXTT10=
EXTT11=
EXTT12=
EXTT13=
EXTT14=
EXTT15=
EXTT16=
EXTT17=
EXTT18=
PLAYORDER=
